HIERARCHY
ROOT Hips
{
	OFFSET 0.00000 0.00000 0.00000
	CHANNELS 6 Xposition Yposition Zposition Zrotation Yrotation Xrotation 
	JOINT LHipJoint
	{
		OFFSET 0 0 0
		CHANNELS 3 Zrotation Yrotation Xrotation
		JOINT LeftUpLeg
		{
			OFFSET 3.13874 -1.57224 1.49786
			CHANNELS 3 Zrotation Yrotation Xrotation
			JOINT LeftLeg
			{
				OFFSET 2.10955 -5.79594 0.00000
				CHANNELS 3 Zrotation Yrotation Xrotation
				JOINT LeftFoot
				{
					OFFSET 2.41843 -6.64458 0.00000
					CHANNELS 3 Zrotation Yrotation Xrotation
					JOINT LeftToeBase
					{
						OFFSET 0.04713 -0.12948 1.66229
						CHANNELS 3 Zrotation Yrotation Xrotation
						End Site
						{
							OFFSET 0.00000 -0.00000 0.85167
						}
					}
				}
			}
		}
	}
	JOINT RHipJoint
	{
		OFFSET 0 0 0
		CHANNELS 3 Zrotation Yrotation Xrotation
		JOINT RightUpLeg
		{
			OFFSET -3.13988 -1.57224 1.49786
			CHANNELS 3 Zrotation Yrotation Xrotation
			JOINT RightLeg
			{
				OFFSET -2.15006 -5.90725 0.00000
				CHANNELS 3 Zrotation Yrotation Xrotation
				JOINT RightFoot
				{
					OFFSET -2.34496 -6.44273 0.00000
					CHANNELS 3 Zrotation Yrotation Xrotation
					JOINT RightToeBase
					{
						OFFSET -0.08699 -0.23900 1.55223
						CHANNELS 3 Zrotation Yrotation Xrotation
						End Site
						{
							OFFSET -0.00000 -0.00000 0.80281
						}
					}
				}
			}
		}
	}
	JOINT LowerBack
	{
		OFFSET 0 0 0
		CHANNELS 3 Zrotation Yrotation Xrotation
		JOINT Spine
		{
			OFFSET 0.01292 1.96517 -0.16495
			CHANNELS 3 Zrotation Yrotation Xrotation
			JOINT Spine1
			{
				OFFSET 0.02122 1.88666 0.19706
				CHANNELS 3 Zrotation Yrotation Xrotation
				JOINT Neck
				{
					OFFSET 0 0 0
					CHANNELS 3 Zrotation Yrotation Xrotation
					JOINT Neck1
					{
						OFFSET -0.01683 1.81591 0.07903
						CHANNELS 3 Zrotation Yrotation Xrotation
						JOINT Head
						{
							OFFSET 0.00815 1.74013 -0.47700
							CHANNELS 3 Zrotation Yrotation Xrotation
							End Site
							{
								OFFSET -0.00204 1.83225 -0.16933
							}
						}
					}
				}
				JOINT LeftShoulder
				{
					OFFSET 0 0 0
					CHANNELS 3 Zrotation Yrotation Xrotation
					JOINT LeftArm
					{
						OFFSET 3.38482 1.41533 0.19802
						CHANNELS 3 Zrotation Yrotation Xrotation
						JOINT LeftForeArm
						{
							OFFSET 4.32712 -0.00000 0.00000
							CHANNELS 3 Zrotation Yrotation Xrotation
							JOINT LeftHand
							{
								OFFSET 3.28587 -0.00000 -0.00000
								CHANNELS 3 Zrotation Yrotation Xrotation
								JOINT LeftFingerBase
								{
									OFFSET 0 0 0
									CHANNELS 3 Zrotation Yrotation Xrotation
									JOINT LeftHandIndex1
									{
										OFFSET 0.43316 -0.00000 -0.00000
										CHANNELS 3 Zrotation Yrotation Xrotation
										End Site
										{
											OFFSET 0.34922 -0.00000 -0.00000
										}
									}
								}
								JOINT LThumb
								{
									OFFSET 0 0 0
									CHANNELS 3 Zrotation Yrotation Xrotation
									End Site
									{
										OFFSET 0.35456 -0.00000 0.35456
									}
								}
							}
						}
					}
				}
				JOINT RightShoulder
				{
					OFFSET 0 0 0
					CHANNELS 3 Zrotation Yrotation Xrotation
					JOINT RightArm
					{
						OFFSET -3.09725 1.62858 -0.14144
						CHANNELS 3 Zrotation Yrotation Xrotation
						JOINT RightForeArm
						{
							OFFSET -4.29104 -0.00000 0.00000
							CHANNELS 3 Zrotation Yrotation Xrotation
							JOINT RightHand
							{
								OFFSET -3.22720 -0.00000 -0.00000
								CHANNELS 3 Zrotation Yrotation Xrotation
								JOINT RightFingerBase
								{
									OFFSET 0 0 0
									CHANNELS 3 Zrotation Yrotation Xrotation
									JOINT RightHandIndex1
									{
										OFFSET -0.54362 -0.00000 -0.00000
										CHANNELS 3 Zrotation Yrotation Xrotation
										End Site
										{
											OFFSET -0.43828 -0.00000 -0.00000
										}
									}
								}
								JOINT RThumb
								{
									OFFSET 0 0 0
									CHANNELS 3 Zrotation Yrotation Xrotation
									End Site
									{
										OFFSET -0.44497 -0.00000 0.44497
									}
								}
							}
						}
					}
				}
			}
		}
	}
}
MOTION
Frames: 12
Frame Time: .0083333
6.14 15.8115 2.371 0 0 0 0 0 0 -21 0 0 0 0 0 0 0 0 0 0 0 0 0 0 21 0 0 0 0 0 0 0 0 0 0 0 0 0 0 0 0 0 0 0 0 0 0 -16 0 0 21 0 0 11 0 0 0 -8 0 0 0 0 0 0 0 0 0 0 0 0 0 0 0 0 0 0 0 0 8 0 0 0 0 0 0 0 0 0 0 0 0 0 0 0 0 0
6.1400 15.8115 2.3710 -171.6380 -54.8022 -178.8630 0.0000 0.0000 0.0000 -25.5305 -13.8521 2.8425 0.5095 4.5754 12.7014 3.2966 -7.6277 -32.9814 7.1123 -15.4257 -49.2977 0.0000 0.0000 0.0000 32.2735 20.8361 1.2543 -0.2722 3.3559 -9.2713 -2.8416 -18.6602 -42.5295 -2.5707 -9.9654 28.8648 2.3457 1.5470 9.2679 2.4549 2.4782 -9.1833 0.9269 0.9325 -15.4877 -6.9153 -7.4922 -14.7752 2.8714 -10.7429 27.8620 0.5455 -5.5249 12.1610 -0.0000 -0.0000 0.0000 -84.5353 17.2330 21.0380 21.3192 -32.1990 -6.2191 -0.0000 -0.0000 7.3603 47.7321 33.4386 31.2272 -7.1250 0.0000 -0.0000 27.6622 72.8398 18.6550 -0.0000 -0.0000 0.0000 67.3690 -20.5922 43.4995 -24.5681 35.7592 -8.0361 0.0000 -0.0000 -17.8326 -37.6999 -21.4764 15.7998 7.1250 -0.0000 -0.0000 -9.9703 -56.1403 2.7436
6.1838 15.8213 2.4888 -171.8600 -54.6511 -178.3370 0.0000 0.0000 0.0000 -26.0360 -14.6290 2.5672 0.4858 4.4692 12.4005 3.3809 -6.7848 -33.5110 7.2630 -15.5494 -49.8622 0.0000 0.0000 0.0000 31.5615 21.1799 0.3928 -0.2652 3.3126 -9.1503 -2.9719 -18.3072 -42.8208 -2.6160 -10.0459 29.1254 2.2720 1.5120 9.3719 2.3034 2.4155 -9.0393 0.8063 0.9086 -15.3723 -6.7444 -7.5222 -15.3339 2.9729 -10.7821 27.7823 0.5287 -5.4867 12.2404 -0.0000 -0.0000 0.0000 -84.4681 15.9494 19.6492 19.9896 -30.6298 -5.5261 -0.0000 -0.0000 8.4321 43.6121 32.8746 27.3445 -7.1250 0.0000 -0.0000 18.7383 70.9374 11.7210 -0.0000 -0.0000 0.0000 67.7034 -20.0671 42.8331 -24.6473 35.8413 -8.0825 0.0000 -0.0000 -16.5222 -33.8307 -22.4100 14.3329 7.1250 -0.0000 -0.0000 -5.4333 -56.2984 1.5085
6.2301 15.8286 2.6022 -172.0480 -54.4266 -177.8130 0.0000 0.0000 0.0000 -26.3950 -15.1226 2.1481 0.4581 4.3416 12.0398 3.4048 -6.8348 -33.6301 7.0682 -15.3891 -49.1318 0.0000 0.0000 0.0000 30.8740 21.6208 -0.5175 -0.2549 3.2483 -8.9709 -2.9709 -18.3617 -42.8581 -2.5378 -9.9062 28.6736 2.1252 1.5132 9.4848 2.1884 2.3895 -9.0022 0.7618 0.9071 -15.3992 -6.5745 -7.5207 -15.8542 2.8935 -10.7735 27.9974 0.4474 -5.4585 12.4150 -0.0000 -0.0000 0.0000 -84.2728 15.4266 18.8723 19.2614 -29.7422 -5.1599 -0.0000 -0.0000 8.9966 39.5933 32.2340 23.8043 -7.1250 0.0000 -0.0000 11.5754 68.9501 6.6780 -0.0000 -0.0000 0.0000 67.8255 -19.9290 43.0343 -24.9756 36.1791 -8.2755 0.0000 -0.0000 -16.7850 -32.1801 -22.7636 13.6838 7.1250 -0.0000 -0.0000 -3.5075 -56.3166 0.9742
6.2771 15.8356 2.7080 -172.2000 -54.2028 -177.3540 0.0000 0.0000 0.0000 -26.6379 -15.4536 1.6770 0.4332 4.2238 11.7072 3.3860 -7.2667 -33.4855 6.9322 -15.2745 -48.6173 0.0000 0.0000 0.0000 30.2431 22.0504 -1.3951 -0.2430 3.1720 -8.7581 -2.9800 -18.3957 -42.9226 -2.3853 -9.6263 27.7749 1.9190 1.5231 9.6014 2.0879 2.3661 -8.9844 0.7667 0.9135 -15.4555 -6.8918 -7.6311 -15.0124 3.3458 -11.0022 27.4237 0.6747 -5.5580 12.0812 -0.0000 0.0000 0.0000 -83.8785 15.3777 18.7465 18.9024 -29.2973 -4.9830 -0.0000 -0.0000 8.9600 35.8962 31.6151 20.7774 -7.1250 0.0000 -0.0000 5.9602 67.1209 3.1787 -0.0000 0.0000 0.0000 67.9569 -19.9831 43.4809 -25.4837 36.6943 -8.5773 0.0000 -0.0000 -17.7524 -31.0573 -23.2066 13.3496 7.1250 -0.0000 -0.0000 -2.1553 -56.5539 0.6107
6.3216 15.8415 2.8106 -172.4720 -53.9233 -176.8310 0.0000 0.0000 0.0000 -26.9422 -15.8111 1.2692 0.4093 4.1071 11.3782 3.3993 -6.5496 -33.6349 7.0258 -15.3536 -48.9720 0.0000 0.0000 0.0000 29.4916 22.5094 -2.3042 -0.2243 3.0482 -8.4131 -3.1184 -17.9245 -43.1617 -2.2710 -9.4091 27.0836 1.6442 1.5662 9.7315 1.9376 2.3732 -8.9279 0.7460 0.9401 -15.4735 -6.7662 -7.6768 -15.5313 3.4676 -11.0899 27.4924 0.6621 -5.5490 12.2186 0.0000 0.0000 0.0000 -83.3776 15.4770 18.8549 18.7980 -29.1669 -4.9320 -0.0000 -0.0000 8.7222 32.2445 31.1963 18.0947 -7.1250 0.0000 -0.0000 0.9729 65.5780 0.4836 0.0000 0.0000 0.0000 68.2371 -19.9573 43.4104 -25.8759 37.0859 -8.8127 0.0000 -0.0000 -17.7433 -29.5131 -23.8114 12.8733 7.1250 -0.0000 -0.0000 -0.2785 -56.8687 0.0810
6.3660 15.8466 2.9126 -172.7560 -53.6296 -176.2590 0.0000 0.0000 0.0000 -27.2319 -16.1331 0.8258 0.3834 3.9763 11.0100 3.4102 -5.2964 -33.8645 7.2778 -15.5614 -49.9173 0.0000 0.0000 0.0000 28.6315 22.9924 -3.3579 -0.1967 2.8563 -7.8789 -3.3940 -16.9514 -43.6330 -2.0269 -8.9219 25.5512 1.2257 1.5730 9.8094 1.8915 2.3144 -8.8716 0.9396 0.9587 -15.4697 -6.8013 -7.6991 -15.6647 3.6532 -11.1337 27.3543 0.7263 -5.5405 12.2089 -0.0000 0.0000 0.0000 -83.1874 15.7571 18.6728 18.9422 -29.3467 -5.0025 -0.0000 -0.0000 8.6933 25.1318 30.7469 13.4866 -7.1250 0.0000 -0.0000 -7.8046 63.1231 -3.4441 -0.0000 0.0000 0.0000 68.2697 -19.8611 43.6887 -26.4000 37.6010 -9.1307 0.0000 -0.0000 -18.0975 -27.1103 -23.9590 11.7442 7.1250 -0.0000 -0.0000 2.4189 -56.4928 -0.6819
6.4113 15.8499 3.0109 -172.7800 -53.3159 -175.8630 0.0000 0.0000 0.0000 -27.3142 -16.4097 0.3889 0.3513 3.8079 10.5370 3.4055 -4.3055 -34.0064 7.3890 -15.6509 -50.3305 0.0000 0.0000 0.0000 27.8753 23.5181 -4.5147 -0.1630 2.6012 -7.1704 -3.8826 -15.3439 -44.6082 -1.5238 -7.7945 22.0915 0.9127 1.5470 9.8250 1.9133 2.2320 -8.8207 1.1574 0.9585 -15.4309 -6.5367 -7.6175 -16.3951 3.4514 -10.9961 27.6951 0.5959 -5.4540 12.4527 -0.0000 -0.0000 0.0000 -83.0662 15.8248 18.2586 18.8112 -29.1834 -4.9385 -0.0000 -0.0000 8.8692 25.2747 30.8282 13.6021 -7.1250 0.0000 -0.0000 -7.6846 63.2441 -3.4126 -0.0000 -0.0000 0.0000 68.1656 -19.8683 44.9180 -27.4629 38.6170 -9.7866 0.0000 -0.0000 -20.6896 -27.1642 -24.7965 12.1454 7.1250 -0.0000 -0.0000 2.6376 -57.4017 -0.8015
6.4553 15.8534 3.1058 -172.7880 -52.9357 -175.4600 0.0000 0.0000 0.0000 -27.3839 -16.8821 0.0836 0.3122 3.5919 9.9312 3.4412 -3.5118 -34.3458 7.4014 -15.6608 -50.3766 0.0000 0.0000 0.0000 27.0380 24.1085 -5.7935 -0.1274 2.3007 -6.3374 -4.4840 -12.9938 -45.6874 -1.1184 -6.7181 18.8828 0.7001 1.5678 9.8246 1.8486 2.2176 -8.8171 1.2071 0.9711 -15.4316 -6.5920 -7.6503 -15.9162 3.7622 -11.1254 27.3121 0.7254 -5.4923 12.2356 -0.0000 -0.0000 0.0000 -82.7629 15.6160 17.8279 18.2885 -28.5249 -4.6862 -0.0000 -0.0000 9.0820 25.2311 30.0630 13.2822 -7.1250 0.0000 -0.0000 -7.2689 62.4498 -3.0913 -0.0000 -0.0000 0.0000 68.3734 -19.7043 44.0443 -26.9647 38.1455 -9.4773 0.0000 -0.0000 -17.9357 -17.9630 -19.7892 6.2639 7.1250 -0.0000 -0.0000 10.3978 -50.4100 -1.3995
6.4953 15.8615 3.1983 -172.9810 -52.6355 -174.9810 0.0000 0.0000 0.0000 -27.6320 -17.4995 -0.0778 0.2776 3.3887 9.3628 3.4881 -2.7174 -34.7591 7.4578 -15.7056 -50.5854 0.0000 0.0000 0.0000 26.0863 24.5159 -6.9319 -0.1027 2.0663 -5.6890 -4.9469 -10.6789 -46.3662 -1.0805 -6.6069 18.5558 0.4334 1.5924 9.8413 1.7326 2.1940 -8.8237 1.2313 0.9818 -15.4554 -6.5021 -7.6301 -15.8510 3.9377 -11.1733 27.2178 0.7721 -5.4853 12.1940 0.0000 0.0000 0.0000 -82.4981 15.4593 17.3714 17.7762 -27.8696 -4.4441 -0.0000 -0.0000 9.4886 25.3176 29.3034 13.0364 -7.1250 0.0000 -0.0000 -6.7329 61.6912 -2.7417 0.0000 0.0000 0.0000 68.6048 -19.7210 43.6791 -26.8560 38.0415 -9.4102 0.0000 -0.0000 -16.9532 -16.5570 -19.6125 5.6986 7.1250 -0.0000 -0.0000 11.6921 -50.0081 -1.4611
6.5308 15.8724 3.2883 -173.0840 -52.4338 -174.6530 0.0000 0.0000 0.0000 -27.8672 -18.1692 -0.1136 0.2510 3.2233 8.9012 3.5427 -2.1034 -35.1832 7.4516 -15.7007 -50.5623 0.0000 0.0000 0.0000 25.3080 24.7283 -7.7624 -0.0916 1.9518 -5.3726 -5.1850 -9.4188 -46.7354 -1.0823 -6.6123 18.5718 0.2650 1.5881 9.9641 1.6164 2.1510 -8.8090 1.2022 0.9735 -15.5169 -6.1642 -7.5585 -16.6622 3.7949 -11.1182 27.7330 0.6315 -5.4195 12.5282 -0.0000 0.0000 0.0000 -82.2269 15.3020 16.9372 17.3151 -27.2713 -4.2307 -0.0000 -0.0000 10.0902 25.7263 28.4236 12.9172 -7.1250 0.0000 -0.0000 -5.7920 60.8840 -2.2462 -0.0000 0.0000 0.0000 68.8558 -19.8048 43.6023 -26.9664 38.1472 -9.4784 0.0000 -0.0000 -16.9470 -17.0521 -22.3691 6.6581 7.1250 -0.0000 -0.0000 12.2705 -52.8545 -2.4004
6.5667 15.8839 3.3756 -173.0590 -52.1879 -174.3390 0.0000 0.0000 0.0000 -27.9497 -18.7852 -0.2757 0.2290 3.0800 8.5015 3.6099 -1.8372 -35.5918 7.2630 -15.5494 -49.8620 0.0000 0.0000 0.0000 24.5561 25.0425 -8.7592 -0.0764 1.7831 -4.9066 -5.2045 -9.3011 -46.7608 -0.7439 -5.5095 15.3677 0.1561 1.5764 10.0971 1.5206 2.1061 -8.8549 1.1638 0.9571 -15.6578 -6.0071 -7.5408 -16.7477 3.8602 -11.1627 27.7747 0.6187 -5.4134 12.5591 -0.0000 -0.0000 0.0000 -81.9079 15.0783 16.5218 16.8333 -26.6375 -4.0123 -0.0000 -0.0000 10.5453 25.9494 27.7970 12.7861 -7.1250 0.0000 -0.0000 -5.2281 60.2864 -1.9525 -0.0000 -0.0000 0.0000 69.1320 -19.9570 43.5623 -27.0768 38.2523 -9.5466 0.0000 -0.0000 -17.0686 -16.5044 -19.7620 5.7209 7.1250 -0.0000 -0.0000 11.7958 -50.1502 -1.5159
